<?xml version="1.0" encoding="utf-8"?>
<!-- Generator: Adobe Illustrator 26.0.3, SVG Export Plug-In . SVG Version: 6.00 Build 0)  -->
<svg version="1.1" xmlns="http://www.w3.org/2000/svg" xmlns:xlink="http://www.w3.org/1999/xlink" x="0px" y="0px"
	 viewBox="0 0 708.66 708.66" style="enable-background:new 0 0 708.66 708.66;" xml:space="preserve">
<style type="text/css">
	.st0{fill:#FFFFFF;}
</style>
<g id="Ebene_2">
	<rect x="-0.17" y="0.33" class="st0" width="708.5" height="707"/>
</g>
<g id="Ebene_1">
	<path d="M226.44,295.79c0-5.28-0.18-10.2,0.03-15.09c0.73-16.81,12.7-28.79,29.56-29.23c11.96-0.31,23.94-0.06,36.55-0.06
		c0-28.2,0-55.44,0-81.39c-18.15,0-36.08,0.66-53.94-0.14c-38.69-1.72-77.35-4.17-116.03-6.36c-7.19-0.41-13.07-3.27-11.95-11.43
		c1.19-8.71,7.75-9.3,15.29-8.1c55.19,8.79,110.58,7.4,165.99,3.37c-0.5-0.79-1.01-1.59-1.51-2.38c4.13-3.91,7.89-10.24,12.52-10.98
		c3.73-0.59,8.53,5.59,12.86,8.76c-0.48,1-0.97,2-1.45,3c22.64-1.13,45.27-2.96,67.93-3.23c33.76-0.4,67.53,0.28,101.29,0.54
		c7.23,0.06,12.94,2.58,12.41,10.91c-0.55,8.57-6.96,8.98-13.9,9.07c-52.81,0.66-105.61,1.53-158.42,2.41
		c-3.25,0.05-6.49,0.7-10.04,1.11c0,28.23,0,55.61,0,84.82c9.5,0,19.09,0.67,28.56-0.13c26.31-2.22,40.82,15.29,38.18,37.15
		c-0.27,2.21,0.45,4.54,0.86,8.04c3.87,0,7.46,0,11.05,0c66.25,0,132.5-0.1,198.75,0.14c6.73,0.02,11.1-1.99,15.06-7.42
		c8.26-11.35,16.67-22.69,26.11-33.04c3.76-4.12,10.15-7.02,15.76-7.98c7.8-1.33,16.02-0.65,24.03-0.2
		c9.05,0.51,13.12,5.57,10.47,14.15c-9.58,30.96-19.35,61.87-30.01,92.46c-1.42,4.07-7.98,7.76-12.83,9.01
		c-53.38,13.74-106.89,26.98-160.38,40.33c-32.73,8.17-65.47,16.31-98.22,24.41c-5.02,1.24-8.62,2.51-9.75,9.12
		c-7.61,44.55-43.48,74.84-89.03,75.89c-5.6,0.13-11.2,0.02-17.06,0.02c0,10.15,0,19.06,0,29.25c15.04,0,29.65-0.01,44.25,0
		c4.68,0,9.84-1.16,13.92,0.42c3.91,1.52,8.64,5.44,9.55,9.15c1.48,6.06-3.26,9.61-9.44,10.32c-1.65,0.19-3.34,0.12-5.01,0.12
		c-82.31,0-164.62,0.02-246.93-0.05c-17.29-0.01-31.05-7.11-40.7-21.57c-3.79-5.67-6.03-12.08,0.87-16.77
		c6.77-4.61,11.68-1.04,15.57,5.29c5.52,8.99,13.92,13.13,24.44,13.08c6.63-0.04,13.27-0.01,20.66-0.01c0-9.68,0-18.53,0-28.65
		c-3.54-0.19-7.38-0.4-11.21-0.6c-18.06-0.93-29.79-12.65-30.62-30.61c-4.68-100.79,65.07-179.13,165.68-186.07
		C219.16,296.44,222.11,296.15,226.44,295.79z M271.27,316.77c0,24.81,0.03,48.51-0.01,72.21c-0.05,34.53-20.38,55.05-54.73,55.11
		c-44.15,0.08-88.3,0.02-132.46,0.02c-3.59,0-7.17,0-11.96,0c-0.6,11.71-1.43,22.29-1.6,32.88c-0.22,13.73,2.67,16.51,16.33,16.52
		c56.53,0.04,113.06-0.14,169.58,0.2c7.55,0.05,10.17-2.69,12.26-9.5c6.55-21.36,12.48-43.11,21.34-63.54
		c15.55-35.86,43.69-57.68,82.2-65.01c32.44-6.17,63.63-15.35,91.66-33.4c2.02-1.3,3.8-2.97,7.02-5.52
		C403.57,316.77,338.18,316.77,271.27,316.77z M244.41,513.42c-42.84,0-84.58-0.06-126.31,0.2c-1.7,0.01-4.73,2.88-4.84,4.57
		c-0.52,7.87-0.23,15.78-0.23,23.53c44.69,0,87.93,0,131.38,0C244.41,532.21,244.41,523.58,244.41,513.42z"/>
</g>
</svg>
